<svg xmlns="http://www.w3.org/2000/svg" width="53" height="53" fill="none" viewBox="0 0 53 53">
  <path fill="#EE7E22" d="M8.837 0C3.948 0 0 3.969 0 8.837s3.955 8.828 8.837 8.828 8.828-3.96 8.828-8.828C17.665 3.969 13.725 0 8.837 0Zm0 1.768a7.061 7.061 0 0 1 7.061 7.069 7.062 7.062 0 0 1-7.061 7.061c-3.886 0-7.069-3.148-7.069-7.061a7.067 7.067 0 0 1 7.069-7.069Zm-.889 7.074c0 .235.095.46.263.626l1.766 1.767c.854.796 2.056-.383 1.246-1.25L9.717 8.477v-4.05a.869.869 0 0 0-.894-.883.869.869 0 0 0-.875.884v4.413Zm21.197-.038a.876.876 0 0 0-.728 1.368c1.083 1.628 1.355 2.817 1.285 3.763-.07.946-.492 1.768-1.023 2.686-.53.919-1.175 1.925-1.396 3.21-.22 1.284.052 2.78 1.115 4.485.628.99 2.13.104 1.499-.932-.886-1.452-1.02-2.399-.873-3.254.147-.854.638-1.677 1.187-2.627.549-.95 1.155-2.046 1.258-3.437.102-1.39-.333-2.992-1.584-4.872a.865.865 0 0 0-.74-.39Zm6.188-.007c-.708.004-1.134.79-.735 1.375 1.088 1.635 1.362 2.817 1.293 3.763-.07.945-.5 1.767-1.03 2.686-.531.919-1.168 1.924-1.39 3.209-.22 1.285.014 2.721 1.115 4.486.623.995 2.116.074 1.5-.932-.89-1.45-1.02-2.399-.873-3.254.146-.855.63-1.677 1.18-2.627.548-.95 1.155-2.047 1.257-3.437.102-1.39-.333-2.992-1.584-4.872a.86.86 0 0 0-.733-.397Zm6.188.003c-.711-.002-1.142.785-.741 1.372 1.105 1.66 1.362 2.817 1.292 3.763-.07.945-.494 1.767-1.025 2.686-.53.919-1.173 1.924-1.394 3.209-.22 1.285.02 2.73 1.115 4.486.603 1.004 2.13.084 1.5-.932-.869-1.392-1.02-2.399-.874-3.254.147-.855.631-1.677 1.18-2.627.55-.95 1.156-2.047 1.258-3.437.102-1.39-.326-2.992-1.577-4.872a.858.858 0 0 0-.734-.394ZM16.942 19.373c-.247.37-.467.738-.659 1.097a5.224 5.224 0 0 0-1.265-.152c-2.916 0-5.301 2.378-5.301 5.295 0 1.357.503 2.595 1.349 3.535H3.535c-.963 0-1.767.78-1.767 1.767v3.533c0 1.012.804 1.769 1.767 1.769h20.318v.933c-.724.143-1.303.693-1.708 1.068-.476.441-.733.645-.947.645-.214 0-.469-.203-.945-.645s-1.154-1.115-2.145-1.115c-.99 0-1.668.673-2.144 1.115-.476.441-.735.645-.946.645-.203 0-.47-.203-.947-.645-.476-.442-1.154-1.115-2.144-1.115-.973 0-1.669.673-2.145 1.115-.476.441-.738.645-.945.645-.207 0-.471-.203-.947-.645-.477-.442-1.172-1.115-2.152-1.115-.883 0-1.818.563-2.496 1.042-.679.48-1.194.96-1.194.96-.855.836.347 2.091 1.199 1.29 0 0 .44-.404 1.01-.807.572-.404 1.181-.718 1.467-.718.252 0 .483.204.96.645.476.442 1.162 1.115 2.153 1.115.976 0 1.668-.673 2.144-1.115.476-.441.739-.652.946-.652.186 0 .469.21.945.652.476.442 1.173 1.115 2.146 1.115.979 0 1.669-.673 2.145-1.115.476-.441.752-.652.945-.652.194 0 .47.21.946.652.476.442 1.168 1.115 2.144 1.115.977 0 1.67-.673 2.146-1.115.204-.189.365-.336.51-.441v2.444H3.534c-.963 0-1.767.78-1.767 1.767v3.533H.88a.915.915 0 0 0-.085 0 .884.884 0 0 0-.795.88A5.289 5.289 0 0 0 5.302 53h42.396A5.295 5.295 0 0 0 53 47.698a.883.883 0 0 0-.887-.88h-7.529c.05-.055.101-.107.148-.164.39-.472.692-1.015.901-1.602h1.694c3.17 0 5.673-2.63 5.673-5.83v-2.477c0-3.2-2.513-5.83-5.673-5.83h-1.395v-2.647a.883.883 0 0 0-.88-.888H24.733a.883.883 0 0 0-.88.888v.88h-4.882a5.256 5.256 0 0 0 1.347-3.535 5.3 5.3 0 0 0-2.405-4.436c.149-.27.304-.536.488-.812 1.225-1.837 3.184-3.58 6.332-3.58 1.204.027 1.204-1.793 0-1.767-3.908 0-6.366 2.216-7.791 4.355Zm-1.415 2.746a12.75 12.75 0 0 0-.49 1.538c-.242 1.153 1.453 1.531 1.727.384 0 0 .116-.508.39-1.235a3.521 3.521 0 0 1 1.398 2.807 3.534 3.534 0 1 1-7.068 0 3.516 3.516 0 0 1 3.534-3.526c.176 0 .34.008.51.032Zm28.638 7.03v14.136a3.523 3.523 0 0 1-3.535 3.533H29.148c-.3 0-.495-.048-.72-.07a3.543 3.543 0 0 1-2.815-3.463c.004-4.802 0-9.783 0-14.137h18.552Zm-40.63 1.766h20.318v3.533H3.535v-3.533Zm42.397 1.767h1.395c2.142 0 3.906 1.78 3.906 4.062v2.478c0 2.254-1.743 4.063-3.906 4.063h-1.395V41.51c.383.004.77.001 1.154.001 1.389 0 2.381-1.248 2.381-2.648v-1.767c0-1.418-1.02-2.648-2.38-2.648-.385-.001-.773.001-1.156.002v-1.77Zm-4.428.874a.883.883 0 0 0-.874.892v3.535c0 1.18 1.768 1.18 1.768 0v-3.535a.884.884 0 0 0-.894-.892Zm4.428 2.659c.381.004.77.002 1.154.002.27 0 .612.324.612.88v1.766c0 .549-.321.88-.612.88-.383-.001-.774 0-1.154.002v-3.53Zm-4.428 4.403a.883.883 0 0 0-.874.9v.88c0 1.179 1.768 1.179 1.768 0v-.88a.883.883 0 0 0-.894-.9ZM3.535 43.285H23.85c0 1.357.5 2.594 1.342 3.533H3.535v-3.533Zm-1.658 5.302h49.246a3.521 3.521 0 0 1-3.425 2.646H5.302c-1.625 0-3-1.071-3.425-2.646Z"/>
</svg>
