<svg xmlns="http://www.w3.org/2000/svg" width="27" height="21" fill="none" viewBox="0 0 27 21">
  <path fill="currentColor" d="M15.15 5.55c4.067 0 6.374 2.597 6.709 5.732h.102c2.617 0 4.739 2.041 4.739 4.56 0 2.517-2.122 4.558-4.739 4.558H8.34c-2.617 0-4.739-2.041-4.739-4.559 0-2.518 2.122-4.559 4.739-4.559h.102C8.78 8.126 11.083 5.55 15.15 5.55Zm0 1.65c-2.723 0-5.094 2.096-5.094 4.991 0 .459-.419.819-.899.819H8.25c-1.657 0-3 1.285-3 2.87 0 1.583 1.343 2.87 3 2.87h13.8c1.657 0 3-1.285 3-2.871 0-1.584-1.343-2.87-3-2.87h-.907c-.479 0-.9-.359-.9-.818 0-2.932-2.37-4.991-5.093-4.991ZM10.847.6a6.222 6.222 0 0 1 5.532 3.374 9.99 9.99 0 0 0-2.118-.036 4.367 4.367 0 0 0-3.442-1.688 4.405 4.405 0 0 0-4.323 3.671l-.061.347a1.65 1.65 0 0 1-1.627 1.37h-.426c-1.343 0-2.432 1.101-2.432 2.461 0 .94.52 1.757 1.284 2.171-.353.45-.644.95-.858 1.489a4.327 4.327 0 0 1 1.98-8.013l.364-.008A6.22 6.22 0 0 1 10.847.6Z"/>
</svg>
