<svg xmlns="http://www.w3.org/2000/svg" width="23" height="23" fill="none" viewBox="0 0 23 23">
  <path fill="currentColor" d="M22.375 18.448a3.927 3.927 0 0 1-3.927 3.927H4.552a3.927 3.927 0 0 1-3.927-3.927V4.552A3.927 3.927 0 0 1 4.552.625h13.896a3.927 3.927 0 0 1 3.927 3.927v13.896Zm-1.813 0V4.552a2.115 2.115 0 0 0-2.114-2.114H4.552a2.115 2.115 0 0 0-2.114 2.114v13.896c0 1.167.947 2.114 2.114 2.114h13.896a2.115 2.115 0 0 0 2.114-2.114Zm-3.02-12.083a.906.906 0 0 1-.783.897l-.124.009H6.365a.906.906 0 0 1-.124-1.804l.124-.009h10.27a.906.906 0 0 1 .907.907Zm0 10.27a.906.906 0 0 1-.783.898l-.124.009H6.365a.906.906 0 0 1-.124-1.804l.124-.009h10.27a.906.906 0 0 1 .907.906Zm0-5.135a.906.906 0 0 1-.783.898l-.124.008H6.365a.906.906 0 0 1-.124-1.804l.124-.008h10.27a.906.906 0 0 1 .907.906Z"/>
</svg>
