<svg xmlns="http://www.w3.org/2000/svg" width="23" height="21" fill="none" viewBox="0 0 23 21">
  <path fill="currentColor" d="m11.5 3.25 1.494 2.893 3.194.464-2.344 2.112.781 3.125-3.125-1.758-3.125 1.758.781-3.125-2.344-2.112 3.282-.464L11.5 3.25Z"/>
  <path fill="currentColor" d="m12.856 20.438-1.356-.782 3.125-5.468h4.688a1.56 1.56 0 0 0 1.562-1.563V3.25a1.56 1.56 0 0 0-1.563-1.563H3.688A1.56 1.56 0 0 0 2.125 3.25v9.375a1.56 1.56 0 0 0 1.563 1.563h7.03v1.562h-7.03a3.125 3.125 0 0 1-3.126-3.125V3.25A3.124 3.124 0 0 1 3.688.125h15.626a3.124 3.124 0 0 1 3.125 3.125v9.375a3.125 3.125 0 0 1-3.125 3.125h-3.778l-2.679 4.688Z"/>
</svg>
