<svg xmlns="http://www.w3.org/2000/svg" width="49" height="45" fill="none" viewBox="0 0 49 45">
  <path fill="#EE7E22" d="M24.5 4.172a18.296 18.296 0 0 1 12.219 4.667L37.78 7.65a19.922 19.922 0 0 0-26.562 0l1.062 1.188A18.295 18.295 0 0 1 24.5 4.172Zm0 36.656a18.342 18.342 0 0 1-13.746-6.206l-1.195 1.055a19.922 19.922 0 0 0 29.882 0l-1.195-1.054A18.345 18.345 0 0 1 24.5 40.828Z"/>
  <path fill="#EE7E22" d="M37.86 20.241c.124.747.187 1.502.187 2.259a13.5 13.5 0 0 1-.622 4.06 3.225 3.225 0 0 0-1.077-.872 14.723 14.723 0 0 0-3.364-1.214 7.972 7.972 0 0 0-8.929-13.052 3.584 3.584 0 0 0-5.742 1.563 3.59 3.59 0 0 0-3.898 4.913l-.143.075c-.447.233-.954.496-1.313.99-.357.49-.452 1.053-.536 1.55-.03.212-.075.422-.134.629-.07.191-.154.378-.25.557-.23.455-.488.97-.488 1.598 0 .628.259 1.143.487 1.597.097.18.18.367.25.558.06.206.105.417.135.63.084.496.179 1.058.536 1.549.36.494.866.757 1.313.99.19.092.375.199.55.317.165.13.32.27.464.42.36.356.769.76 1.358.951.568.185 1.128.102 1.622.029.217-.038.436-.061.656-.069.22.008.439.03.656.069l.14.02a2.615 2.615 0 0 0-.32.783 2.02 2.02 0 0 0 .347 1.713c.745.965 2.178 1.222 3.41.608a10.081 10.081 0 0 1 9.069.002c.045.022.09.044.136.064a13.473 13.473 0 0 1-7.86 2.519c-7.47 0-13.547-6.077-13.547-13.547 0-7.47 6.077-13.547 13.547-13.547 2.969-.01 5.857.966 8.213 2.773a13.645 13.645 0 0 1 4.805 7.01l1.53-.441a15.25 15.25 0 0 0-5.368-7.836 15.004 15.004 0 0 0-9.18-3.1c-8.349 0-15.14 6.792-15.14 15.141s6.79 15.14 15.14 15.14c3.894.003 7.639-1.5 10.45-4.194.263-.15.493-.351.678-.59a1.85 1.85 0 0 0 .205-.327A15.08 15.08 0 0 0 39.641 22.5c0-.845-.07-1.689-.21-2.523l-1.572.264Zm-1.467 7.743a.48.48 0 0 1-.053.39c-.272.352-.901.42-1.432.157a11.686 11.686 0 0 0-8.048-.907h-.014v.003c-.843.209-1.66.512-2.434.903-.532.265-1.162.196-1.436-.159a.48.48 0 0 1-.052-.387c.06-.267.292-.636.765-.875a13.276 13.276 0 0 1 11.94 0c.472.239.705.608.764.875Zm-2.33-9.468a6.358 6.358 0 0 1-3.362 5.619 14.923 14.923 0 0 0-4.732.427 2.95 2.95 0 0 0 .324-1.265c0-.629-.259-1.143-.487-1.598a4.33 4.33 0 0 1-.251-.557 2.852 2.852 0 0 1-.082-.337 3.186 3.186 0 1 0-.973-2.29v.037a4.846 4.846 0 0 0-.928-.579 4.544 4.544 0 0 1-.551-.317 2.193 2.193 0 0 1-.157-.127 3.585 3.585 0 0 0 2.146-4.8 6.382 6.382 0 0 1 9.052 5.787Zm-7.97 0a1.594 1.594 0 1 1 3.188 0 1.594 1.594 0 0 1-3.187 0Zm-4.382-6.375a1.992 1.992 0 1 1 0 3.984 1.992 1.992 0 0 1 0-3.984Zm-3.984 2.39c.143 0 .285.015.425.045a3.588 3.588 0 0 0 1.493 2.486 1.992 1.992 0 1 1-1.918-2.53Zm1.195 14.145a5.97 5.97 0 0 0-.89.085c-.351.052-.683.101-.896.032-.229-.075-.472-.314-.73-.569-.2-.207-.415-.4-.645-.575a5.753 5.753 0 0 0-.753-.443c-.32-.166-.621-.322-.76-.513-.137-.188-.193-.523-.253-.877a5.875 5.875 0 0 0-.19-.857 5.539 5.539 0 0 0-.343-.781c-.163-.324-.317-.63-.317-.881 0-.25.154-.557.317-.882.134-.25.249-.512.343-.781.084-.28.148-.567.19-.857.06-.354.116-.688.252-.876.14-.191.44-.348.76-.514.113-.059.227-.118.341-.182a3.583 3.583 0 0 0 5.658-1.233c.151.124.295.257.43.397.201.208.417.4.647.575.24.166.491.315.753.443.32.166.621.323.76.514.137.187.193.522.253.876.042.29.105.576.19.857.094.269.208.53.343.781.163.325.317.632.317.882s-.154.557-.317.881a5.527 5.527 0 0 0-.343.782 3.674 3.674 0 0 0-.076.27c-.335.14-.666.292-.992.457-.822.414-1.42 1.142-1.602 1.947a2.25 2.25 0 0 0-.048.705c-.215.21-.419.39-.613.454-.213.07-.545.02-.897-.032a5.976 5.976 0 0 0-.89-.085Zm14.017 3.363a11.675 11.675 0 0 0-10.498-.002c-.532.265-1.162.196-1.436-.16a.48.48 0 0 1-.052-.387c.06-.266.292-.636.765-.874.353-.179.716-.343 1.086-.49a2.982 2.982 0 0 0 2.323-.172 9.968 9.968 0 0 1 1.972-.747 13.142 13.142 0 0 1 6.558 1.409c.473.238.705.607.765.874a.66.66 0 0 1 .015.208c-.135.145-.273.288-.414.427a1.398 1.398 0 0 1-1.084-.086Z"/>
  <path fill="#EE7E22" d="M46.813.984v7.97h-2.391V.983h-1.594v7.97h-2.39V.983h-1.594v13.149a2.793 2.793 0 0 0 2.319 2.749l-.72 23.765a3.187 3.187 0 1 0 6.365 0l-.165-5.421-1.593.048.165 5.432v.024a1.594 1.594 0 1 1-3.18-.024l.721-23.784h1.738l.508 16.758 1.593-.048-.508-16.75a2.793 2.793 0 0 0 2.32-2.75V.985h-1.594Zm0 13.149a1.196 1.196 0 0 1-1.196 1.195h-3.984a1.196 1.196 0 0 1-1.196-1.195v-3.586h6.376v3.586ZM7.81 16c1.544-1.326 2.574-3.955 2.574-7.047 0-4.468-2.15-7.969-4.895-7.969-2.745 0-4.895 3.5-4.895 7.97 0 2.94.932 5.463 2.352 6.843l-.179 5.882 1.593.048.15-4.958c.561.18 1.16.201 1.732.063l.723 23.874.001.024a1.594 1.594 0 1 1-3.182 0l.002-.024.526-17.385-1.592-.048-.527 17.374a3.187 3.187 0 1 0 6.365 0L7.81 16ZM2.188 8.953c0-3.813 1.707-6.375 3.3-6.375 1.595 0 3.302 2.562 3.302 6.375 0 3.814-1.707 6.375-3.301 6.375s-3.301-2.561-3.301-6.375Zm13.587 12.498-.796 2.39 1.512.505.796-2.39-1.512-.505Zm4.489 3.48-2.391.797.504 1.512 2.39-.796-.503-1.512Zm-.104-3.891-.883 1.326 2.39 1.594.884-1.326-2.39-1.594Z"/>
</svg>
