<svg xmlns="http://www.w3.org/2000/svg" width="61" height="45" fill="none" viewBox="0 0 61 45">
  <path fill="#EE7E22" d="M31.484 19.728v-5.103a.984.984 0 1 0-1.968 0v5.103a2.914 2.914 0 0 0-1.673 4.037l-2.96 2.96a.984.984 0 0 0 1.391 1.393l2.96-2.96a2.92 2.92 0 0 0 3.169-.396 2.946 2.946 0 0 0-.919-5.034Zm-.984 3.756a.985.985 0 1 1 0-1.97.985.985 0 0 1 0 1.97Zm0-16.734A15.75 15.75 0 1 0 46.25 22.5 15.769 15.769 0 0 0 30.5 6.75Zm11.813 16.734h1.918a13.706 13.706 0 0 1-3.328 8.027l-1.354-1.354a.983.983 0 0 0-1.608.318.986.986 0 0 0 .216 1.074l1.354 1.354a13.705 13.705 0 0 1-8.027 3.328v-1.919a.984.984 0 1 0-1.968 0v1.92a13.706 13.706 0 0 1-8.027-3.329l1.354-1.354a.984.984 0 0 0-1.392-1.392l-1.354 1.354a13.705 13.705 0 0 1-3.328-8.027h1.919a.984.984 0 1 0 0-1.968h-1.92a13.706 13.706 0 0 1 3.329-8.027l1.354 1.354a.984.984 0 0 0 1.392-1.392l-1.354-1.354a13.705 13.705 0 0 1 8.027-3.328v1.918a.985.985 0 0 0 1.968 0V8.77a13.706 13.706 0 0 1 8.027 3.328l-1.354 1.354a.985.985 0 0 0 1.392 1.392l1.354-1.354a13.706 13.706 0 0 1 3.328 8.027h-1.919a.984.984 0 1 0 0 1.968ZM14.75 11.672V1.828a.984.984 0 1 0-1.969 0v7.875h-1.969V1.828a.984.984 0 1 0-1.968 0v7.875H6.875V1.828a.984.984 0 0 0-1.969 0v7.875H2.938V1.828a.984.984 0 0 0-1.97 0v9.844a6.896 6.896 0 0 0 4.474 6.444l-1.34 22.052a3.765 3.765 0 1 0 7.516 0l-1.342-22.052a6.896 6.896 0 0 0 4.474-6.444ZM9.653 40.289a1.767 1.767 0 0 1-.482 1.332 1.843 1.843 0 0 1-2.623 0 1.768 1.768 0 0 1-.482-1.333l1.323-21.75c.156.011.312.024.47.024.16 0 .315-.013.471-.023l1.323 21.75ZM7.859 16.594a4.927 4.927 0 0 1-4.921-4.922h9.843a4.927 4.927 0 0 1-4.922 4.922Zm9.072-9.698a.985.985 0 0 1 .162-1.383A21.425 21.425 0 0 1 30.5.843 21.693 21.693 0 0 1 44.276 5.79a.984.984 0 1 1-1.253 1.52A19.722 19.722 0 0 0 30.5 2.811a19.473 19.473 0 0 0-12.186 4.246.985.985 0 0 1-1.383-.162ZM47.33 34.517a.985.985 0 0 1 .162 1.384 21.615 21.615 0 0 1-33.985-.001.984.984 0 1 1 1.545-1.221 19.644 19.644 0 0 0 30.895 0 .987.987 0 0 1 1.383-.162Zm12.7-24.814c0-4.885-3.09-8.86-6.89-8.86s-6.891 3.975-6.891 8.86c0 3.793 1.867 7.027 4.478 8.288l-1.346 22.177a3.764 3.764 0 1 0 7.517 0l-1.346-22.177c2.611-1.26 4.478-4.495 4.478-8.288ZM54.934 40.29a1.765 1.765 0 0 1-.482 1.332 1.842 1.842 0 0 1-2.623 0 1.767 1.767 0 0 1-.482-1.333l1.32-21.756c.158.014.314.03.474.03.16 0 .316-.017.473-.03l1.32 21.757ZM53.14 16.594c-2.714 0-4.922-3.091-4.922-6.89 0-3.8 2.208-6.892 4.922-6.892 2.713 0 4.922 3.092 4.922 6.891 0 3.8-2.209 6.89-4.922 6.89Z"/>
</svg>
