<svg xmlns="http://www.w3.org/2000/svg" width="52" height="46" fill="none" viewBox="0 0 52 46">
  <path fill="#EE7E22" d="M47.809 36.551c.135-.561.093-1.373-.614-2.392-.749-1.071-2.142-2.184-3.536-2.62a2.968 2.968 0 0 0-.572-1.685c-1.477-2.039-5.169-2.195-6.271-2.195-2.35 0-4.982.291-6.937 2.392-3.151-.02-5.345 1.56-6.177 2.267-.468.406-.843 1.05-1.113 1.841-2.6 1.404-4.867 4.722-4.961 7.374-.052 1.383.24 2.381.884 3.047.718.738 1.633.822 2.257.822 1.362 0 2.974-.427 3.827-.687.582.427 1.31.687 2.257.687 1.092 0 2.475-.479 3.4-.884a4.696 4.696 0 0 0 2.777.884h.562c.957 0 2.35-.052 3.349-.676.988.644 1.997.676 3.64.676 1.05 0 1.737-.354 2.236-.864.197.042.426.104.634.146 1.28.312 2.902.707 4.316.707 1.352 0 2.517-.364 3.027-1.508 1.06-2.36-1.072-5.761-2.985-7.332ZM20.04 43.145c-.104-.104-.333-.468-.302-1.529.052-1.414 1.092-3.245 2.413-4.524a14.777 14.777 0 0 0 .426 3.858c.156.666.364 1.363.666 1.997-.738.187-1.674.385-2.454.385-.396 0-.624-.062-.75-.187Zm5.595-.291-.02-.021c-.365-.395-.708-1.113-1.01-2.371-.53-2.195-.426-4.067-.135-5.263.01-.031.01-.052.021-.083.166-.614.374-1.03.582-1.206a7.487 7.487 0 0 1 3.328-1.623c-1.04 2.226-1.06 4.493-1.081 5.606v.197c-.01.936.343 3.079 1.425 4.805-.687.25-1.404.437-1.893.437-.406 0-.822-.062-1.217-.478Zm7.696.478h-.27c-.77 0-1.415-.27-1.976-.842-1.28-1.3-1.675-3.692-1.664-4.368v-.208c.01-1.3.041-4.015 1.747-6.147 1.165-1.456 2.756-2.017 5.657-2.017 2.09 0 4.015.561 4.576 1.33.136.178.26.458.094.989-.24.738-.967 1.653-1.674 2.537-.53.676-1.092 1.373-1.53 2.09-1.34 2.216-1.923 3.755-2.225 5.887-.093.707-1.466.749-2.735.749Zm4.784-.322a.551.551 0 0 0 .02-.125c.26-1.841.75-3.12 1.946-5.086.374-.613.884-1.258 1.372-1.882.614-.77 1.228-1.55 1.654-2.35.822.28 1.83 1.019 2.371 1.788.302.437.312.676.302.718-.25.655-.676 1.175-1.227 1.83-.5.593-1.061 1.269-1.633 2.215-.364.604-.624 1.186-.853 1.685-.208.468-.364.801-.52 1.03-.01.01-.01.02-.02.031-.25.374-.48.468-.926.468-1.456 0-2.008-.031-2.486-.322Zm10.774.052c-.041.083-.405.312-1.539.228-1.113-.072-2.423-.395-3.39-.624 0-.01.01-.01.01-.02.208-.468.427-.957.728-1.456.489-.812.978-1.394 1.456-1.956.219-.27.437-.53.645-.8 1.331 1.258 2.558 3.567 2.09 4.628ZM19.25 12.548a1.05 1.05 0 0 0 .073 1.477c.198.187.447.27.707.27.281 0 .562-.114.77-.343 3.058-3.36 1.29-5.606.125-7.082-1.196-1.53-1.862-2.361.28-4.504a1.048 1.048 0 0 0 0-1.476 1.048 1.048 0 0 0-1.476 0c-3.453 3.452-1.643 5.75-.447 7.28 1.185 1.497 1.84 2.33-.032 4.378Zm7.01.052a1.043 1.043 0 0 0 .177 1.466 1.044 1.044 0 0 0 1.466-.166c1.706-2.163.687-3.65.083-4.545-.572-.842-.759-1.123.104-2.121a1.051 1.051 0 0 0-.104-1.477 1.051 1.051 0 0 0-1.476.104c-1.924 2.225-.884 3.754-.26 4.67.561.81.77 1.112.01 2.069Zm-13.114 0a1.043 1.043 0 0 0 .176 1.466 1.044 1.044 0 0 0 1.466-.166c1.706-2.163.687-3.65.084-4.545-.572-.842-.76-1.123.104-2.121a1.051 1.051 0 0 0-.104-1.477 1.051 1.051 0 0 0-1.477.104c-1.924 2.225-.884 3.754-.26 4.67.562.81.77 1.112.01 2.069Z"/>
  <path fill="#EE7E22" d="M16.078 37.06h-1.57c0-.051 0-.114-.01-.166-.146-.925-.676-1.684-1.28-2.558-1.424-2.06-3.764-5.46-3.92-15.038H32.27c-.041 2.246-.197 4.295-.478 6.104a1.046 1.046 0 0 0 .873 1.196 1.053 1.053 0 0 0 1.196-.873c.344-2.195.51-4.711.51-7.478 0-.572-.468-1.04-1.04-1.04H8.247c-.572 0-1.04.468-1.04 1.04 0 1.487.052 2.85.135 4.098a5.988 5.988 0 0 0-2.568-.583c-1.103 0-2.06.416-2.767 1.196-.77.843-1.175 2.08-1.06 3.224.29 2.996 2.683 3.994 4.991 4.961 1.436.603 2.923 1.227 4.275 2.33.457.821.905 1.477 1.3 2.038.437.645.77 1.123.894 1.54h-7.3c-.573 0-1.04.467-1.04 1.04 0 .571.467 1.04 1.04 1.04h10.971c.572 0 1.04-.469 1.04-1.04.01-.562-.457-1.03-1.04-1.03ZM6.74 29.23c-2.33-.978-3.557-1.56-3.723-3.245-.042-.458.104-1.144.53-1.612.312-.343.718-.51 1.228-.51.8 0 2.225.229 2.922 1.716.27 1.8.634 3.287 1.05 4.535-.696-.333-1.372-.614-2.007-.884Z"/>
</svg>
