<svg xmlns="http://www.w3.org/2000/svg" width="42" height="42" fill="none" viewBox="0 0 42 42">
  <path fill="#EE7E22" d="M29.332 18.37a6.522 6.522 0 0 0 4.641-1.923l6.317-6.312c.5-.5.545-1.313.07-1.837a1.313 1.313 0 0 0-1.901-.046l-5.63 5.626a1.008 1.008 0 0 1-1.425 0c-.393-.392-.372-1.055.02-1.447l5.606-5.605a1.312 1.312 0 0 0-.046-1.9 1.281 1.281 0 0 0-.868-.332 1.37 1.37 0 0 0-.969.402l-5.6 5.6a1.008 1.008 0 0 1-1.425 0c-.392-.393-.372-1.056.02-1.448l5.606-5.603a1.313 1.313 0 0 0-.046-1.9 1.281 1.281 0 0 0-.868-.333 1.37 1.37 0 0 0-.969.402l-6.312 6.313a6.522 6.522 0 0 0-1.923 4.642v.675a1.311 1.311 0 0 1-.385.93l-2.92 2.921a.329.329 0 0 1-.465 0L5.645 2.98a1.313 1.313 0 0 0-1.852-.005C2.55 4.207 1.887 5.945 1.887 8.001c-.008 3.396 1.777 7.301 4.658 10.179l7.01 7.01a5.315 5.315 0 0 0 5.083 1.382 1.307 1.307 0 0 1 1.222.305l.935.863c.24.246.376.576.377.92v.455a3.916 3.916 0 0 0 1.13 2.76l7.387 7.512.007.008a4.372 4.372 0 1 0 6.182-6.182L24.805 22.14a.328.328 0 0 1 0-.464l2.922-2.921a1.311 1.311 0 0 1 .928-.385h.677Z"/>
  <path fill="#EE7E22" d="M17.309 29.367A7.984 7.984 0 0 1 11.7 27.05l-1.137-1.137a.656.656 0 0 0-.927 0l-6.973 6.936c-1.242 1.243-1.686 3.073-1.071 4.864.034.101.075.2.122.295.828 1.695 2.434 2.68 4.191 2.68a4.567 4.567 0 0 0 3.252-1.35l9.299-9.343a.384.384 0 0 0 .108-.305v-.02a.38.38 0 0 0-.422-.351c-.277.03-.556.047-.834.048Z"/>
</svg>
