<svg xmlns="http://www.w3.org/2000/svg" width="22" height="22" fill="none" viewBox="0 0 22 22">
  <path fill="currentColor" d="m21.426 18.703-7.7-7.701.348-.35a1.952 1.952 0 0 1 1.258-.581 3.218 3.218 0 0 0 2.085-.938l4.559-4.559-.912-.911-3.495 3.495-.912-.912 3.495-3.495-.911-.912-3.495 3.495-.912-.912L18.329.927l-.912-.911-4.559 4.558a3.217 3.217 0 0 0-.937 2.085c-.028.464-.235.91-.582 1.258l-.35.35L2.724 0h-.787l-.16.409c-.425 1.078-.607 2.181-.525 3.19.093 1.149.53 2.144 1.263 2.877l5.133 5.134-7.073 7.073a1.936 1.936 0 0 0 0 2.735c.791.791 2.025.71 2.735 0l7.68-7.681 7.702 7.701c.831.831 2.073.663 2.735 0a1.936 1.936 0 0 0 0-2.735Zm-9.175-9.874c.57-.57.91-1.314.957-2.093a1.93 1.93 0 0 1 .562-1.25l.152-.152 2.735 2.735-.152.152a1.93 1.93 0 0 1-1.25.563 3.239 3.239 0 0 0-2.093.957l-.349.349-.012-.013-.9-.899.35-.349ZM2.397 20.506a.645.645 0 0 1-.912-.912l7.074-7.073.911.912-7.073 7.073Zm7.973-7.997L3.425 5.565c-.977-.978-1.047-2.466-.736-3.775l9.2 9.2-1.52 1.519Zm10.145 8.017a.645.645 0 0 1-.912 0l-7.701-7.7.911-.913 7.702 7.702a.64.64 0 0 1 0 .911Z"/>
</svg>
